<svg xmlns="http://www.w3.org/2000/svg" x="0px" y="0px"
width="24" height="24"
viewBox="0 0 172 172"
style=" fill:#000000;"><g fill="none" fill-rule="nonzero" stroke="none" stroke-width="1" stroke-linecap="butt" stroke-linejoin="miter" stroke-miterlimit="10" stroke-dasharray="" stroke-dashoffset="0" font-family="none" font-weight="none" font-size="none" text-anchor="none" style="mix-blend-mode: normal"><path d="M0,172v-172h172v172z" fill="none"></path><g fill="#ffffff"><path d="M107.31803,14.24935c-1.87684,0.07031 -3.6511,0.8745 -4.94108,2.23958l-12.31771,12.58366c-1.31529,-0.25143 -2.67062,-0.40592 -4.05924,-0.40592c-1.38863,0 -2.74395,0.1545 -4.05924,0.40592l-12.31771,-12.58366c-1.33646,-1.40412 -3.18466,-2.20703 -5.12305,-2.22559c-2.91434,-0.02746 -5.55511,1.71253 -6.67976,4.40126c-1.12466,2.68873 -0.50923,5.79074 1.55672,7.84646l9.98014,10.1901c-2.99335,3.69419 -4.8571,8.33975 -4.8571,13.46549c0,0.37952 0.09256,0.60549 0.11198,0.95182c-3.53046,1.00278 -6.77945,2.7762 -9.40625,5.403c-2.51271,2.50832 -4.74295,5.19867 -6.80273,7.97852h-19.73633c-3.956,0 -7.16667,3.21067 -7.16667,7.16667c0,3.956 3.21067,7.16667 7.16667,7.16667h11.60384c-1.91498,4.67996 -3.23229,9.48877 -3.89128,14.33333h-7.71257c-3.956,0 -7.16667,3.21067 -7.16667,7.16667c0,3.956 3.21067,7.16667 7.16667,7.16667h7.48861c0.423,5.09762 1.27585,9.89626 2.57552,14.33333h-10.06413c-3.956,0 -7.16667,3.21067 -7.16667,7.16667c0,3.956 3.21067,7.16667 7.16667,7.16667h16.48893c7.46208,11.72208 19.06914,19.18601 33.67773,21.01009v-71.17676c0,-3.956 3.21067,-7.16667 7.16667,-7.16667c3.956,0 7.16667,3.21067 7.16667,7.16667v71.17676c14.60859,-1.82409 26.21566,-9.28801 33.67774,-21.01009h16.48893c3.956,0 7.16667,-3.21067 7.16667,-7.16667c0,-3.956 -3.21067,-7.16667 -7.16667,-7.16667h-10.06413c1.29967,-4.43708 2.15252,-9.23571 2.57552,-14.33333h7.48861c3.956,0 7.16667,-3.21067 7.16667,-7.16667c0,-3.956 -3.21067,-7.16667 -7.16667,-7.16667h-7.75456c-0.69463,-4.78334 -2.06108,-9.61611 -4.00326,-14.33333h11.75781c3.956,0 7.16667,-3.21067 7.16667,-7.16667c0,-3.956 -3.21067,-7.16667 -7.16667,-7.16667h-19.80632c-2.05425,-2.81686 -4.26809,-5.51829 -6.73275,-7.97852c-2.6268,-2.6268 -5.87579,-4.40022 -9.40625,-5.403c0.01942,-0.34634 0.11198,-0.5723 0.11198,-0.95182c0,-5.12575 -1.86374,-9.77131 -4.85709,-13.46549l9.98014,-10.1901c2.10307,-2.07721 2.71521,-5.23244 1.54146,-7.94538c-1.17375,-2.71293 -3.89259,-4.42702 -6.84648,-4.31634z"></path></g></g></svg>